# xmcd CD database file
#
# Track frame offsets:
#	150
#	22012
#	50747
#	64357
#	83735
#	111235
#	140920
#	166660
#	194015
#	217362
#	235500
#	258570
#	274845
#	288980
#	319685
#
# Disc length: 4615 seconds
#
# Revision: 2
# Processed by: cddbd v1.5.2PL0 Copyright (c) Steve Scherf et al.
# Submitted via: CDex 1.70beta2
#
DISCID=ef12050f
DTITLE=吉田拓郎 - THE LIVE BEST Disc 1
DYEAR=2002
DGENRE=Folk
TTITLE0=人生を語らず
TTITLE1=7月26日未明
TTITLE2=春だったね’73
TTITLE3=流星
TTITLE4=祭りのあと
TTITLE5=いつも見ていたヒロシマ
TTITLE6=もうすぐ帰るよ
TTITLE7=言葉
TTITLE8=されど私の人生
TTITLE9=伽草子
TTITLE10=唇をかみしめて
TTITLE11=今日までそして明日から
TTITLE12=旅の宿
TTITLE13=外は白い雪の夜
TTITLE14=Life
EXTD=YEAR: 2002
EXTT0=
EXTT1=
EXTT2=
EXTT3=
EXTT4=
EXTT5=
EXTT6=
EXTT7=
EXTT8=
EXTT9=
EXTT10=
EXTT11=
EXTT12=
EXTT13=
EXTT14=
PLAYORDER=
